<svg xmlns="http://www.w3.org/2000/svg" viewBox="0 0 34 34"><defs><style>.prefix__cls-2{fill:#f0f0f0}.prefix__cls-3{fill:#d80027}</style></defs><g id="prefix___5" data-name="5"><g id="prefix__audjpy"><path d="M23.77 11.89a11.89 11.89 0 01-23.77 0L11.89 0a11.88 11.88 0 0111.88 11.89z" fill="#0052b4"/><path class="prefix__cls-2" d="M11.86 11.89zM11.89 6.2V0A11.89 11.89 0 000 11.89h6.2v-3.5l3.49 3.5h2.17v-2.2L8.39 6.2z"/><path class="prefix__cls-3" d="M6 1.55A11.93 11.93 0 001.55 6v5.88h3.1V4.65h7.24v-3.1z"/><path class="prefix__cls-3" d="M11.89 10.43L7.66 6.2H6.2l5.69 5.69z"/><path class="prefix__cls-2" d="M7.17 13.96l.65 1.36 1.47-.34-.66 1.36 1.19.94-1.47.33v1.51l-1.18-.94-1.18.94v-1.51l-1.47-.33 1.18-.94-.66-1.36 1.48.34.65-1.36zM17.8 16.54l.32.68.74-.17-.33.68.59.47-.73.17v.75l-.59-.47-.59.47v-.75l-.74-.17.6-.47-.34-.68.74.17.33-.68zM14.76 9.3l.33.68.74-.17-.33.68.59.47-.74.17v.76l-.59-.48-.59.48.01-.76-.74-.17.59-.47-.33-.68.74.17.32-.68zM17.8 5.17l.32.68.74-.17-.33.68.59.47-.73.17v.75l-.59-.47-.59.47V7l-.74-.17.6-.47-.34-.68.74.17.33-.68zM20.45 8.27l.32.68.74-.17-.33.68.59.47-.73.17v.75l-.59-.47-.59.47v-.75l-.74-.17.59-.47-.32-.68.73.17.33-.68zM18.55 11.89l.26.79h.83l-.67.48.26.8-.68-.49-.67.49.26-.8-.67-.48h.83l.25-.79z"/><g id="prefix__jp225"><circle class="prefix__cls-2" cx="22.11" cy="22.11" r="11.89"/><circle class="prefix__cls-3" cx="22.11" cy="22.11" r="5.17"/></g></g></g></svg>