<svg xmlns="http://www.w3.org/2000/svg" viewBox="0 0 34 34"><defs><style>.prefix__cls-1{fill:#0052b4}.prefix__cls-2{fill:#f0f0f0}.prefix__cls-3{fill:#d80027}.prefix__cls-4{fill:#fff}</style></defs><g id="prefix___5" data-name="5"><g id="prefix__audnzd"><path class="prefix__cls-1" d="M23.77 11.89a11.89 11.89 0 01-23.77 0L11.89 0a11.88 11.88 0 0111.88 11.89z"/><path class="prefix__cls-2" d="M11.86 11.89zM11.89 6.2V0A11.89 11.89 0 000 11.89h6.2v-3.5l3.49 3.5h2.17v-2.2L8.39 6.2z"/><path class="prefix__cls-3" d="M6 1.55A11.93 11.93 0 001.55 6v5.88h3.1V4.65h7.24v-3.1z"/><path class="prefix__cls-3" d="M11.89 10.43L7.66 6.2H6.2l5.69 5.69z"/><path class="prefix__cls-2" d="M7.17 13.96l.65 1.36 1.47-.34-.66 1.36 1.19.94-1.47.33v1.51l-1.18-.94-1.18.94v-1.51l-1.47-.33 1.18-.94-.66-1.36 1.48.34.65-1.36zM17.8 16.54l.32.68.74-.17-.33.68.59.47-.73.17v.75l-.59-.47-.59.47v-.75l-.74-.17.6-.47-.34-.68.74.17.33-.68zM14.76 9.3l.33.68.74-.17-.33.68.59.47-.74.17v.76l-.59-.48-.59.48.01-.76-.74-.17.59-.47-.33-.68.74.17.32-.68zM17.8 5.17l.32.68.74-.17-.33.68.59.47-.73.17v.75l-.59-.47-.59.47V7l-.74-.17.6-.47-.34-.68.74.17.33-.68zM20.45 8.27l.32.68.74-.17-.33.68.59.47-.73.17v.75l-.59-.47-.59.47v-.75l-.74-.17.59-.47-.32-.68.73.17.33-.68zM18.55 11.89l.26.79h.83l-.67.48.26.8-.68-.49-.67.49.26-.8-.67-.48h.83l.25-.79z"/><path class="prefix__cls-1" d="M34 22.11a11.89 11.89 0 01-23.78 0l11.89-11.89A11.89 11.89 0 0134 22.11z"/><path class="prefix__cls-2" d="M22.08 22.11zM22.11 16.42v-6.2a11.89 11.89 0 00-11.89 11.89h6.2v-3.49l3.5 3.49h2.16v-2.19l-3.49-3.5z"/><path class="prefix__cls-3" d="M16.24 11.77a12 12 0 00-4.47 4.47v5.87h3.1v-7.24h7.24v-3.1z"/><path class="prefix__cls-3" d="M22.11 20.65l-4.22-4.23h-1.47l5.69 5.69zM30.81 19.23l.21.65h.68l-.55.4.21.65-.55-.41-.55.41.21-.65-.55-.4h.68l.21-.65z"/><path class="prefix__cls-4" d="M30.81 19.49l.12.39.07.12h.5l-.33.24-.08.06v.09l.13.39-.33-.24-.08-.06-.08.06-.33.24.13-.39v-.09l-.08-.06-.3-.24h.51v-.09l.12-.39m0-.45l-.26.79h-.83l.68.49-.26.79.67-.49.67.49-.25-.79.67-.49h-.83l-.23-.86z"/><path class="prefix__cls-3" d="M27.84 24.94l.33 1.02h1.08l-.87.64.33 1.02-.87-.63-.87.63.33-1.02-.87-.64h1.08l.33-1.02z"/><path class="prefix__cls-4" d="M27.84 25.18l.25.78v.09H29l-.66.48-.08.06v.1l.25.78-.59-.47-.08-.06-.08.06-.66.48.25-.78v-.1l-.08-.06-.66-.48h.92v-.09l.25-.78m0-.45l-.38 1.18h-1.19l1 .74-.39 1.18 1-.73 1 .73-.39-1.18 1-.74h-1.2l-.39-1.18z"/><path class="prefix__cls-3" d="M27.95 15.59l.28.86h.9l-.72.53.27.86-.73-.53-.72.53.27-.86-.73-.53h.91l.27-.86z"/><path class="prefix__cls-4" d="M28 15.88l.19.57v.1h.71l-.49.36-.08.06v.09l.19.58-.52-.35v-.06l-.08.06-.49.35.19-.58v-.09l-.08-.06-.5-.36h.71v-.1l.18-.57m0-.46l-.32 1h-1l.84.61-.33 1 .88-.63.84.61-.32-1 .84-.61h-1l-.32-1z"/><path class="prefix__cls-3" d="M25.1 19.23l.33 1.02h1.07l-.87.62.33 1.02-.86-.63-.87.63.33-1.02-.86-.62h1.07l.33-1.02z"/><path class="prefix__cls-4" d="M25.1 19.46l.25.78v.09h.92l-.66.48-.08.06v.1l.25.78-.66-.48-.08-.06-.08.06-.67.48.26-.78v-.1l-.08-.06-.66-.48h.91v-.09l.25-.78m0-.45l-.39 1.18h-1.11l1 .74-.38 1.18 1-.73 1 .73-.39-1.18 1-.74h-1.22L25.1 19z"/></g></g></svg>