<svg xmlns="http://www.w3.org/2000/svg" viewBox="0 0 34 34"><defs><style>.cls-1{fill:#0052b4;}.cls-2{fill:#f0f0f0;}.cls-3{fill:#d80027;}</style></defs><g id="_5" data-name="5"><g id="audusd"><path class="cls-1" d="M23.77,11.89A11.89,11.89,0,0,1,0,11.89L11.89,0A11.88,11.88,0,0,1,23.77,11.89Z"/><path class="cls-2" d="M11.89,0Z"/><path class="cls-2" d="M11.86,11.89h0v0Z"/><path class="cls-2" d="M11.89,6.2V0h0A11.89,11.89,0,0,0,0,11.89H6.2V8.39l3.49,3.5h2.17l0,0V9.69L8.39,6.2Z"/><path class="cls-3" d="M6,1.55A11.93,11.93,0,0,0,1.55,6v5.88h3.1V4.65h7.24V1.55Z"/><path class="cls-3" d="M11.89,10.43,7.66,6.2H6.2l5.69,5.69h0Z"/><polygon class="cls-2" points="7.17 13.96 7.82 15.32 9.29 14.98 8.63 16.34 9.82 17.28 8.35 17.61 8.35 19.12 7.17 18.18 5.99 19.12 5.99 17.61 4.52 17.28 5.7 16.34 5.04 14.98 6.52 15.32 7.17 13.96"/><polygon class="cls-2" points="17.8 16.54 18.12 17.22 18.86 17.05 18.53 17.73 19.12 18.2 18.39 18.37 18.39 19.12 17.8 18.65 17.21 19.12 17.21 18.37 16.47 18.2 17.07 17.73 16.73 17.05 17.47 17.22 17.8 16.54"/><polygon class="cls-2" points="14.76 9.3 15.09 9.98 15.83 9.81 15.5 10.49 16.09 10.96 15.35 11.13 15.35 11.89 14.76 11.41 14.17 11.89 14.18 11.13 13.44 10.96 14.03 10.49 13.7 9.81 14.44 9.98 14.76 9.3"/><polygon class="cls-2" points="17.8 5.17 18.12 5.85 18.86 5.68 18.53 6.36 19.12 6.83 18.39 7 18.39 7.75 17.8 7.28 17.21 7.75 17.21 7 16.47 6.83 17.07 6.36 16.73 5.68 17.47 5.85 17.8 5.17"/><polygon class="cls-2" points="20.45 8.27 20.77 8.95 21.51 8.78 21.18 9.46 21.77 9.93 21.04 10.1 21.04 10.85 20.45 10.38 19.86 10.85 19.86 10.1 19.12 9.93 19.71 9.46 19.39 8.78 20.12 8.95 20.45 8.27"/><polygon class="cls-2" points="18.55 11.89 18.81 12.68 19.64 12.68 18.97 13.16 19.23 13.96 18.55 13.47 17.88 13.96 18.14 13.16 17.47 12.68 18.3 12.68 18.55 11.89"/><g id="us30"><circle class="cls-2" cx="22.11" cy="22.11" r="11.89"/><path class="cls-3" d="M21.59,22.11H34a11.77,11.77,0,0,0-.41-3.1h-12Z"/><path class="cls-3" d="M21.59,15.91H32.25a11.8,11.8,0,0,0-2.74-3.11H21.59Z"/><path class="cls-3" d="M22.11,34a11.87,11.87,0,0,0,7.4-2.58H14.71A11.87,11.87,0,0,0,22.11,34Z"/><path class="cls-3" d="M12,28.31H32.25a11.59,11.59,0,0,0,1.34-3.1h-23A11.59,11.59,0,0,0,12,28.31Z"/><path class="cls-1" d="M15.73,12.08h1.08l-1,.73L16.19,14l-1-.73-1,.73.34-1a12,12,0,0,0-2.31,2.57h.35L11.9,16l-.28.5.3.95L11.35,17q-.21.45-.39.93l.34,1h1.25l-1,.74.38,1.18-1-.73-.61.44a12,12,0,0,0-.09,1.48H22.11V10.22A11.78,11.78,0,0,0,15.73,12.08Zm.46,8.84-1-.73-1,.73.39-1.18-1-.74H14.8l.38-1.18L15.57,19h1.24l-1,.74Zm-.39-4.65.39,1.19-1-.73-1,.73.39-1.19-1-.73H14.8l.38-1.18.39,1.18h1.24Zm4.65,4.65-1-.73-1,.73.38-1.18-1-.74h1.25l.39-1.18L19.83,19h1.25l-1,.74Zm-.38-4.65.38,1.19-1-.73-1,.73.38-1.19-1-.73h1.25l.39-1.18.38,1.18h1.25Zm0-3.46L20.45,14l-1-.73-1,.73.38-1.18-1-.73h1.25l.39-1.19.38,1.19h1.25Z"/></g></g></g></svg>