<svg xmlns="http://www.w3.org/2000/svg" viewBox="0 0 34 34"><defs><style>.prefix__cls-1{fill:#f0f0f0}.prefix__cls-2{fill:#d80027}</style></defs><g id="prefix___5" data-name="5"><g id="prefix__cadchf"><circle class="prefix__cls-1" cx="11.89" cy="11.89" r="11.89"/><path class="prefix__cls-2" d="M23.77 11.89a11.88 11.88 0 00-6.71-10.71V22.6a11.91 11.91 0 006.71-10.71zM0 11.89A11.9 11.9 0 006.72 22.6V1.18A11.87 11.87 0 000 11.89zM13.96 13.44l2.06-1.04-1.03-.51v-1.04l-2.07 1.04 1.04-2.07h-1.04l-1.03-1.55-1.04 1.55H9.82l1.03 2.07-2.06-1.04v1.04l-1.04.51 2.07 1.04-.52 1.03h2.07v1.55h1.03v-1.55h2.07l-.51-1.03z"/><g id="prefix__ch20"><circle class="prefix__cls-2" cx="22.11" cy="22.11" r="11.89"/><path class="prefix__cls-1" d="M28.31 20.04h-4.13v-4.13h-4.14v4.13h-4.13v4.14h4.13v4.13h4.14v-4.13h4.13v-4.14z"/></g></g></g></svg>