<svg xmlns="http://www.w3.org/2000/svg" viewBox="0 0 34 34"><defs><style>.prefix__cls-1{fill:#0052b4}.prefix__cls-2{fill:#ffda44}.prefix__cls-3{fill:#f0f0f0}.prefix__cls-4{fill:#d80027}</style></defs><g id="prefix___5" data-name="5"><g id="prefix__euraud"><g id="prefix__eu50"><circle class="prefix__cls-1" cx="11.89" cy="11.89" r="11.89"/><path class="prefix__cls-2" d="M11.89 4.65l.38 1.19h1.25l-1.01.73.38 1.18-1-.73-1.01.73.39-1.18-1.01-.73h1.24l.39-1.19zM6.77 6.77l1.11.57.88-.88-.19 1.23 1.11.56-1.23.2-.2 1.23-.56-1.11-1.23.19.88-.88-.57-1.11zM4.65 11.89l1.19-.39v-1.24l.73 1.01 1.18-.39-.73 1.01.73 1-1.18-.38-.73 1.01v-1.25l-1.19-.38zM6.77 17l.57-1.11-.88-.88 1.23.2.56-1.11.2 1.23 1.23.19-1.11.57.19 1.23-.88-.88-1.11.56zM11.89 19.12l-.39-1.18h-1.24l1.01-.73-.39-1.19 1.01.73 1-.73-.38 1.19 1.01.73h-1.25l-.38 1.18zM17 17l-1.11-.56-.88.88.2-1.23-1.11-.57 1.23-.19.19-1.23.57 1.11 1.23-.2-.88.88L17 17zM19.12 11.89l-1.18.38v1.25l-.73-1.01-1.19.38.73-1-.73-1.01 1.19.39.73-1.01v1.24l1.18.39zM17 6.77l-.56 1.11.88.88-1.23-.19-.57 1.11-.19-1.23-1.23-.2 1.11-.56-.2-1.23.88.88L17 6.77z"/></g><path class="prefix__cls-1" d="M34 22.11a11.89 11.89 0 11-23.77 0l11.88-11.88A11.88 11.88 0 0134 22.11z"/><path class="prefix__cls-3" d="M22.08 22.11zM22.11 16.43v-6.2a11.88 11.88 0 00-11.88 11.88h6.2v-3.49l3.49 3.49h2.16v-2.19l-3.49-3.49z"/><path class="prefix__cls-4" d="M16.24 11.78a11.79 11.79 0 00-4.46 4.46v5.87h3.1v-7.23h7.23v-3.1z"/><path class="prefix__cls-4" d="M22.11 20.65l-4.22-4.22h-1.46l5.68 5.68z"/><path class="prefix__cls-3" d="M17.39 24.18l.66 1.36 1.47-.34-.66 1.36 1.19.94-1.48.34v1.51l-1.18-.95-1.18.95.01-1.51-1.48-.34 1.19-.94-.66-1.36 1.47.34.65-1.36zM28.02 26.76l.33.69.74-.17-.33.68.59.47-.74.16v.76l-.59-.47-.59.47v-.76l-.73-.16.59-.47-.33-.68.74.17.32-.69zM24.99 19.53l.33.68.73-.17-.33.68.59.47-.73.17v.75l-.59-.47-.59.47v-.75l-.74-.17.6-.47-.33-.68.73.17.33-.68zM28.02 15.39l.33.69.74-.17-.33.68.59.47-.74.16v.76l-.59-.48-.59.48v-.76l-.73-.16.59-.47-.33-.68.74.17.32-.69zM30.67 18.5l.33.68.74-.17-.33.68.59.47-.74.16v.76l-.59-.47-.59.47.01-.76-.74-.16.59-.47-.33-.68.74.17.32-.68zM28.78 22.11l.26.79h.82l-.67.49.26.79-.67-.49-.67.49.25-.79-.67-.49h.83l.26-.79z"/></g></g></svg>