<svg xmlns="http://www.w3.org/2000/svg" viewBox="0 0 34 34"><defs><style>.prefix__cls-2{fill:#ffda44}.prefix__cls-4{fill:#d80027}</style></defs><g id="prefix___5" data-name="5"><g id="prefix__eurcad"><g id="prefix__eu50"><circle cx="11.89" cy="11.89" r="11.89" fill="#0052b4"/><path class="prefix__cls-2" d="M11.89 4.65l.38 1.19h1.25l-1.01.73.38 1.18-1-.73-1.01.73.39-1.18-1.01-.73h1.24l.39-1.19zM6.77 6.77l1.11.57.88-.88-.19 1.23 1.11.56-1.23.2-.2 1.23-.56-1.11-1.23.19.88-.88-.57-1.11zM4.65 11.89l1.19-.39v-1.24l.73 1.01 1.18-.39-.73 1.01.73 1-1.18-.38-.73 1.01v-1.25l-1.19-.38zM6.77 17l.57-1.11-.88-.88 1.23.2.56-1.11.2 1.23 1.23.19-1.11.57.19 1.23-.88-.88-1.11.56zM11.89 19.12l-.39-1.18h-1.24l1.01-.73-.39-1.19 1.01.73 1-.73-.38 1.19 1.01.73h-1.25l-.38 1.18zM17 17l-1.11-.56-.88.88.2-1.23-1.11-.57 1.23-.19.19-1.23.57 1.11 1.23-.2-.88.88L17 17zM19.12 11.89l-1.18.38v1.25l-.73-1.01-1.19.38.73-1-.73-1.01 1.19.39.73-1.01v1.24l1.18.39zM17 6.77l-.56 1.11.88.88-1.23-.19-.57 1.11-.19-1.23-1.23-.2 1.11-.56-.2-1.23.88.88L17 6.77z"/></g><circle cx="22.11" cy="22.11" r="11.89" fill="#f0f0f0"/><path class="prefix__cls-4" d="M34 22.11a11.9 11.9 0 00-6.72-10.71v21.42A11.87 11.87 0 0034 22.11zM10.23 22.11a11.88 11.88 0 006.71 10.71V11.4a11.91 11.91 0 00-6.71 10.71zM24.18 23.66l2.07-1.03-1.04-.52v-1.03l-2.06 1.03 1.03-2.06h-1.03l-1.04-1.55-1.03 1.55h-1.03l1.03 2.06-2.07-1.03v1.03l-1.03.52 2.07 1.03-.52 1.04h2.07v1.55h1.03V24.7h2.07l-.52-1.04z"/></g></g></svg>