<svg xmlns="http://www.w3.org/2000/svg" viewBox="0 0 34 34"><defs><style>.cls-1{fill:#0052b4;}.cls-2{fill:#ffda44;}.cls-3{fill:#f0f0f0;}.cls-4{fill:#d80027;}</style></defs><g id="_5" data-name="5"><g id="eurgbp"><g id="eu50"><circle class="cls-1" cx="11.89" cy="11.89" r="11.89"/><polygon class="cls-2" points="11.89 4.65 12.27 5.84 13.52 5.84 12.51 6.57 12.89 7.75 11.89 7.02 10.88 7.75 11.27 6.57 10.26 5.84 11.5 5.84 11.89 4.65"/><polygon class="cls-2" points="6.77 6.77 7.88 7.34 8.76 6.46 8.57 7.69 9.68 8.25 8.45 8.45 8.25 9.68 7.69 8.57 6.46 8.76 7.34 7.88 6.77 6.77"/><polygon class="cls-2" points="4.65 11.89 5.84 11.5 5.84 10.26 6.57 11.27 7.75 10.88 7.02 11.89 7.75 12.89 6.57 12.51 5.84 13.52 5.84 12.27 4.65 11.89"/><polygon class="cls-2" points="6.77 17 7.34 15.89 6.46 15.01 7.69 15.21 8.25 14.1 8.45 15.33 9.68 15.52 8.57 16.09 8.76 17.32 7.88 16.44 6.77 17"/><polygon class="cls-2" points="11.89 19.12 11.5 17.94 10.26 17.94 11.27 17.21 10.88 16.02 11.89 16.75 12.89 16.02 12.51 17.21 13.52 17.94 12.27 17.94 11.89 19.12"/><polygon class="cls-2" points="17 17 15.89 16.44 15.01 17.32 15.21 16.09 14.1 15.52 15.33 15.33 15.52 14.1 16.09 15.21 17.32 15.01 16.44 15.89 17 17"/><polygon class="cls-2" points="19.12 11.89 17.94 12.27 17.94 13.52 17.21 12.51 16.02 12.89 16.75 11.89 16.02 10.88 17.21 11.27 17.94 10.26 17.94 11.5 19.12 11.89"/><polygon class="cls-2" points="17 6.77 16.44 7.88 17.32 8.76 16.09 8.57 15.52 9.68 15.33 8.45 14.1 8.25 15.21 7.69 15.01 6.46 15.89 7.34 17 6.77"/></g><g id="gb100"><circle class="cls-3" cx="22.11" cy="22.11" r="11.89"/><path class="cls-1" d="M12.68,14.87a11.81,11.81,0,0,0-2,4.14h6.19Z"/><path class="cls-1" d="M33.59,19a11.81,11.81,0,0,0-2.05-4.14L27.41,19Z"/><path class="cls-1" d="M10.63,25.21a11.81,11.81,0,0,0,2,4.14l4.14-4.14Z"/><path class="cls-1" d="M29.35,12.68a11.81,11.81,0,0,0-4.14-2v6.19Z"/><path class="cls-1" d="M14.87,31.54A11.81,11.81,0,0,0,19,33.59V27.41Z"/><path class="cls-1" d="M19,10.63a11.81,11.81,0,0,0-4.14,2L19,16.82Z"/><path class="cls-1" d="M25.21,33.59a11.81,11.81,0,0,0,4.14-2.05l-4.14-4.13v6.18Z"/><path class="cls-1" d="M27.41,25.21l4.13,4.14a11.81,11.81,0,0,0,2.05-4.14Z"/><path class="cls-4" d="M33.9,20.56H23.66V10.32a12.06,12.06,0,0,0-3.1,0V20.56H10.32a12.06,12.06,0,0,0,0,3.1H20.56V33.9a12.06,12.06,0,0,0,3.1,0V23.66H33.9a12.06,12.06,0,0,0,0-3.1Z"/><path class="cls-4" d="M25.21,25.21h0l5.31,5.31c.24-.25.47-.5.7-.77l-4.55-4.54Z"/><path class="cls-4" d="M19,25.21h0L13.7,30.52c.25.24.5.47.77.7L19,26.67V25.21Z"/><path class="cls-4" d="M19,19h0L13.7,13.7c-.24.25-.47.5-.7.77L17.55,19Z"/><path class="cls-4" d="M25.21,19h0l5.31-5.31c-.25-.24-.5-.47-.77-.7l-4.54,4.55Z"/></g></g></g></svg>