<svg xmlns="http://www.w3.org/2000/svg" viewBox="0 0 34 34"><defs><style>.prefix__cls-1{fill:#0052b4}.prefix__cls-2{fill:#ffda44}.prefix__cls-3{fill:#f0f0f0}.prefix__cls-4{fill:#d80027}.prefix__cls-5{fill:#fff}</style></defs><g id="prefix___5" data-name="5"><g id="prefix__eurnzd"><g id="prefix__eu50"><circle class="prefix__cls-1" cx="11.89" cy="11.89" r="11.89"/><path class="prefix__cls-2" d="M11.89 4.65l.38 1.19h1.25l-1.01.73.38 1.18-1-.73-1.01.73.39-1.18-1.01-.73h1.24l.39-1.19zM6.77 6.77l1.11.57.88-.88-.19 1.23 1.11.56-1.23.2-.2 1.23-.56-1.11-1.23.19.88-.88-.57-1.11zM4.65 11.89l1.19-.39v-1.24l.73 1.01 1.18-.39-.73 1.01.73 1-1.18-.38-.73 1.01v-1.25l-1.19-.38zM6.77 17l.57-1.11-.88-.88 1.23.2.56-1.11.2 1.23 1.23.19-1.11.57.19 1.23-.88-.88-1.11.56zM11.89 19.12l-.39-1.18h-1.24l1.01-.73-.39-1.19 1.01.73 1-.73-.38 1.19 1.01.73h-1.25l-.38 1.18zM17 17l-1.11-.56-.88.88.2-1.23-1.11-.57 1.23-.19.19-1.23.57 1.11 1.23-.2-.88.88L17 17zM19.12 11.89l-1.18.38v1.25l-.73-1.01-1.19.38.73-1-.73-1.01 1.19.39.73-1.01v1.24l1.18.39zM17 6.77l-.56 1.11.88.88-1.23-.19-.57 1.11-.19-1.23-1.23-.2 1.11-.56-.2-1.23.88.88L17 6.77z"/></g><path class="prefix__cls-1" d="M34 22.11a11.89 11.89 0 01-23.78 0l11.89-11.89A11.89 11.89 0 0134 22.11z"/><path class="prefix__cls-3" d="M22.08 22.11zM22.11 16.42v-6.2a11.89 11.89 0 00-11.89 11.89h6.2v-3.49l3.5 3.49h2.16v-2.19l-3.49-3.5z"/><path class="prefix__cls-4" d="M16.24 11.77a12 12 0 00-4.47 4.47v5.87h3.1v-7.24h7.24v-3.1z"/><path class="prefix__cls-4" d="M22.11 20.65l-4.22-4.23h-1.47l5.69 5.69zM30.81 19.23l.21.65h.68l-.55.4.21.65-.55-.41-.55.41.21-.65-.55-.4h.68l.21-.65z"/><path class="prefix__cls-5" d="M30.81 19.49l.12.39.07.12h.5l-.33.24-.08.06v.09l.13.39-.33-.24-.08-.06-.08.06-.33.24.13-.39v-.09l-.08-.06-.3-.24h.51v-.09l.12-.39m0-.45l-.26.79h-.83l.68.49-.26.79.67-.49.67.49-.25-.79.67-.49h-.83l-.23-.86z"/><path class="prefix__cls-4" d="M27.84 24.94l.33 1.02h1.08l-.87.64.33 1.02-.87-.63-.87.63.33-1.02-.87-.64h1.08l.33-1.02z"/><path class="prefix__cls-5" d="M27.84 25.18l.25.78v.09H29l-.66.48-.08.06v.1l.25.78-.59-.47-.08-.06-.08.06-.66.48.25-.78v-.1l-.08-.06-.66-.48h.92v-.09l.25-.78m0-.45l-.38 1.18h-1.19l1 .74-.39 1.18 1-.73 1 .73-.39-1.18 1-.74h-1.2l-.39-1.18z"/><path class="prefix__cls-4" d="M27.95 15.59l.28.86h.9l-.72.53.27.86-.73-.53-.72.53.27-.86-.73-.53h.91l.27-.86z"/><path class="prefix__cls-5" d="M28 15.88l.19.57v.1h.71l-.49.36-.08.06v.09l.19.58-.52-.35v-.06l-.08.06-.49.35.19-.58v-.09l-.08-.06-.5-.36h.71v-.1l.18-.57m0-.46l-.32 1h-1l.84.61-.33 1 .88-.63.84.61-.32-1 .84-.61h-1l-.32-1z"/><path class="prefix__cls-4" d="M25.1 19.23l.33 1.02h1.07l-.87.62.33 1.02-.86-.63-.87.63.33-1.02-.86-.62h1.07l.33-1.02z"/><path class="prefix__cls-5" d="M25.1 19.46l.25.78v.09h.92l-.66.48-.08.06v.1l.25.78-.66-.48-.08-.06-.08.06-.67.48.26-.78v-.1l-.08-.06-.66-.48h.91v-.09l.25-.78m0-.45l-.39 1.18h-1.11l1 .74-.38 1.18 1-.73 1 .73-.39-1.18 1-.74h-1.22L25.1 19z"/></g></g></svg>