<svg xmlns="http://www.w3.org/2000/svg" viewBox="0 0 34 34"><defs><style>.cls-1{fill:#f0f0f0;}.cls-2{fill:#0052b4;}.cls-3{fill:#d80027;}</style></defs><g id="_5" data-name="5"><g id="gbpaud"><g id="gb100"><circle class="cls-1" cx="11.89" cy="11.89" r="11.89"/><path class="cls-2" d="M2.46,4.65a11.81,11.81,0,0,0-2,4.14H6.6Z"/><path class="cls-2" d="M23.37,8.79a11.81,11.81,0,0,0-2.05-4.14L17.18,8.79Z"/><path class="cls-2" d="M.41,15a11.81,11.81,0,0,0,2.05,4.14L6.59,15Z"/><path class="cls-2" d="M19.13,2.46A11.81,11.81,0,0,0,15,.41V6.59Z"/><path class="cls-2" d="M4.65,21.32a11.81,11.81,0,0,0,4.14,2.05V17.18Z"/><path class="cls-2" d="M8.79.41A11.81,11.81,0,0,0,4.65,2.46L8.79,6.59Z"/><path class="cls-2" d="M15,23.37a11.81,11.81,0,0,0,4.14-2.05L15,17.18v6.19Z"/><path class="cls-2" d="M17.18,15l4.14,4.14A11.81,11.81,0,0,0,23.37,15Z"/><path class="cls-3" d="M23.68,10.34H13.44V.1a12.06,12.06,0,0,0-3.1,0V10.34H.1a12.06,12.06,0,0,0,0,3.1H10.34V23.68a12.06,12.06,0,0,0,3.1,0V13.44H23.68a12.06,12.06,0,0,0,0-3.1Z"/><path class="cls-3" d="M15,15h0L20.3,20.3c.24-.25.47-.5.7-.77L16.45,15Z"/><path class="cls-3" d="M8.79,15h0L3.48,20.3c.25.24.5.47.77.7l4.54-4.55V15Z"/><path class="cls-3" d="M8.79,8.79h0L3.48,3.48c-.24.25-.47.5-.7.77L7.33,8.79Z"/><path class="cls-3" d="M15,8.79h0L20.3,3.48c-.25-.24-.5-.47-.77-.7L15,7.33Z"/></g><path class="cls-2" d="M34,22.11a11.89,11.89,0,1,1-23.77,0L22.11,10.23A11.88,11.88,0,0,1,34,22.11Z"/><path class="cls-1" d="M22.11,10.23Z"/><path class="cls-1" d="M22.08,22.11h0v0Z"/><path class="cls-1" d="M22.11,16.43v-6.2h0A11.88,11.88,0,0,0,10.23,22.11h6.2V18.62l3.49,3.49h2.16l0,0V19.92l-3.49-3.49Z"/><path class="cls-3" d="M16.24,11.78a11.79,11.79,0,0,0-4.46,4.46v5.87h3.1V14.88h7.23v-3.1Z"/><path class="cls-3" d="M22.11,20.65l-4.22-4.22H16.43l5.68,5.68h0Z"/><polygon class="cls-1" points="17.39 24.18 18.05 25.54 19.52 25.2 18.86 26.56 20.05 27.5 18.57 27.84 18.57 29.35 17.39 28.4 16.21 29.35 16.22 27.84 14.74 27.5 15.93 26.56 15.27 25.2 16.74 25.54 17.39 24.18"/><polygon class="cls-1" points="28.02 26.76 28.35 27.45 29.09 27.28 28.76 27.96 29.35 28.43 28.61 28.59 28.61 29.35 28.02 28.88 27.43 29.35 27.43 28.59 26.7 28.43 27.29 27.96 26.96 27.28 27.7 27.45 28.02 26.76"/><polygon class="cls-1" points="24.99 19.53 25.32 20.21 26.05 20.04 25.72 20.72 26.31 21.19 25.58 21.36 25.58 22.11 24.99 21.64 24.4 22.11 24.4 21.36 23.66 21.19 24.26 20.72 23.93 20.04 24.66 20.21 24.99 19.53"/><polygon class="cls-1" points="28.02 15.39 28.35 16.08 29.09 15.91 28.76 16.59 29.35 17.06 28.61 17.22 28.61 17.98 28.02 17.5 27.43 17.98 27.43 17.22 26.7 17.06 27.29 16.59 26.96 15.91 27.7 16.08 28.02 15.39"/><polygon class="cls-1" points="30.67 18.5 31 19.18 31.74 19.01 31.41 19.69 32 20.16 31.26 20.32 31.26 21.08 30.67 20.61 30.08 21.08 30.09 20.32 29.35 20.16 29.94 19.69 29.61 19.01 30.35 19.18 30.67 18.5"/><polygon class="cls-1" points="28.78 22.11 29.04 22.9 29.86 22.9 29.19 23.39 29.45 24.18 28.78 23.69 28.11 24.18 28.36 23.39 27.69 22.9 28.52 22.9 28.78 22.11"/></g></g></svg>