<svg xmlns="http://www.w3.org/2000/svg" viewBox="0 0 34 34"><defs><style>.prefix__cls-1{fill:#f0f0f0}.prefix__cls-2{fill:#0052b4}.prefix__cls-3{fill:#d80027}</style></defs><g id="prefix___5" data-name="5"><g id="prefix__gbpchf"><g id="prefix__gb100"><circle class="prefix__cls-1" cx="11.89" cy="11.89" r="11.89"/><path class="prefix__cls-2" d="M2.46 4.65a11.81 11.81 0 00-2 4.14H6.6zM23.37 8.79a11.81 11.81 0 00-2.05-4.14l-4.14 4.14zM.41 15a11.81 11.81 0 002.05 4.14L6.59 15zM19.13 2.46A11.81 11.81 0 0015 .41v6.18zM4.65 21.32a11.81 11.81 0 004.14 2.05v-6.19zM8.79.41a11.81 11.81 0 00-4.14 2.05l4.14 4.13zM15 23.37a11.81 11.81 0 004.14-2.05L15 17.18v6.19zM17.18 15l4.14 4.14A11.81 11.81 0 0023.37 15z"/><path class="prefix__cls-3" d="M23.68 10.34H13.44V.1a12.06 12.06 0 00-3.1 0v10.24H.1a12.06 12.06 0 000 3.1h10.24v10.24a12.06 12.06 0 003.1 0V13.44h10.24a12.06 12.06 0 000-3.1z"/><path class="prefix__cls-3" d="M15 15l5.3 5.3c.24-.25.47-.5.7-.77L16.45 15zM8.79 15l-5.31 5.3c.25.24.5.47.77.7l4.54-4.55V15zM8.79 8.79L3.48 3.48c-.24.25-.47.5-.7.77l4.55 4.54zM15 8.79l5.3-5.31c-.25-.24-.5-.47-.77-.7L15 7.33z"/></g><g id="prefix__ch20"><circle class="prefix__cls-3" cx="22.11" cy="22.11" r="11.89"/><path class="prefix__cls-1" d="M28.31 20.04h-4.13v-4.13h-4.14v4.13h-4.13v4.14h4.13v4.13h4.14v-4.13h4.13v-4.14z"/></g></g></g></svg>