<svg xmlns="http://www.w3.org/2000/svg" viewBox="0 0 34 34"><defs><style>.cls-1{fill:#f0f0f0;}.cls-2{fill:#0052b4;}.cls-3{fill:#d80027;}</style></defs><g id="_5" data-name="5"><g id="gbpjpy"><g id="gb100"><circle class="cls-1" cx="11.89" cy="11.89" r="11.89"/><path class="cls-2" d="M2.46,4.65a11.81,11.81,0,0,0-2,4.14H6.6Z"/><path class="cls-2" d="M23.37,8.79a11.81,11.81,0,0,0-2.05-4.14L17.18,8.79Z"/><path class="cls-2" d="M.41,15a11.81,11.81,0,0,0,2.05,4.14L6.59,15Z"/><path class="cls-2" d="M19.13,2.46A11.81,11.81,0,0,0,15,.41V6.59Z"/><path class="cls-2" d="M4.65,21.32a11.81,11.81,0,0,0,4.14,2.05V17.18Z"/><path class="cls-2" d="M8.79.41A11.81,11.81,0,0,0,4.65,2.46L8.79,6.59Z"/><path class="cls-2" d="M15,23.37a11.81,11.81,0,0,0,4.14-2.05L15,17.18v6.19Z"/><path class="cls-2" d="M17.18,15l4.14,4.14A11.81,11.81,0,0,0,23.37,15Z"/><path class="cls-3" d="M23.68,10.34H13.44V.1a12.06,12.06,0,0,0-3.1,0V10.34H.1a12.06,12.06,0,0,0,0,3.1H10.34V23.68a12.06,12.06,0,0,0,3.1,0V13.44H23.68a12.06,12.06,0,0,0,0-3.1Z"/><path class="cls-3" d="M15,15h0L20.3,20.3c.24-.25.47-.5.7-.77L16.45,15Z"/><path class="cls-3" d="M8.79,15h0L3.48,20.3c.25.24.5.47.77.7l4.54-4.55V15Z"/><path class="cls-3" d="M8.79,8.79h0L3.48,3.48c-.24.25-.47.5-.7.77L7.33,8.79Z"/><path class="cls-3" d="M15,8.79h0L20.3,3.48c-.25-.24-.5-.47-.77-.7L15,7.33Z"/></g><g id="jp225"><circle class="cls-1" cx="22.11" cy="22.11" r="11.89"/><circle class="cls-3" cx="22.11" cy="22.11" r="5.17"/></g></g></g></svg>