<svg xmlns="http://www.w3.org/2000/svg" viewBox="0 0 34 34"><defs><style>.prefix__cls-1{fill:#f0f0f0}.prefix__cls-2{fill:#0052b4}.prefix__cls-3{fill:#d80027}.prefix__cls-4{fill:#fff}</style></defs><g id="prefix___5" data-name="5"><g id="prefix__gbpnzd"><g id="prefix__gb100"><circle class="prefix__cls-1" cx="11.89" cy="11.89" r="11.89"/><path class="prefix__cls-2" d="M2.46 4.65a11.81 11.81 0 00-2 4.14H6.6zM23.37 8.79a11.81 11.81 0 00-2.05-4.14l-4.14 4.14zM.41 15a11.81 11.81 0 002.05 4.14L6.59 15zM19.13 2.46A11.81 11.81 0 0015 .41v6.18zM4.65 21.32a11.81 11.81 0 004.14 2.05v-6.19zM8.79.41a11.81 11.81 0 00-4.14 2.05l4.14 4.13zM15 23.37a11.81 11.81 0 004.14-2.05L15 17.18v6.19zM17.18 15l4.14 4.14A11.81 11.81 0 0023.37 15z"/><path class="prefix__cls-3" d="M23.68 10.34H13.44V.1a12.06 12.06 0 00-3.1 0v10.24H.1a12.06 12.06 0 000 3.1h10.24v10.24a12.06 12.06 0 003.1 0V13.44h10.24a12.06 12.06 0 000-3.1z"/><path class="prefix__cls-3" d="M15 15l5.3 5.3c.24-.25.47-.5.7-.77L16.45 15zM8.79 15l-5.31 5.3c.25.24.5.47.77.7l4.54-4.55V15zM8.79 8.79L3.48 3.48c-.24.25-.47.5-.7.77l4.55 4.54zM15 8.79l5.3-5.31c-.25-.24-.5-.47-.77-.7L15 7.33z"/></g><path class="prefix__cls-2" d="M34 22.11a11.89 11.89 0 01-23.78 0l11.89-11.89A11.89 11.89 0 0134 22.11z"/><path class="prefix__cls-1" d="M22.08 22.11zM22.11 16.42v-6.2a11.89 11.89 0 00-11.89 11.89h6.2v-3.49l3.5 3.49h2.16v-2.19l-3.49-3.5z"/><path class="prefix__cls-3" d="M16.24 11.77a12 12 0 00-4.47 4.47v5.87h3.1v-7.24h7.24v-3.1z"/><path class="prefix__cls-3" d="M22.11 20.65l-4.22-4.23h-1.47l5.69 5.69zM30.81 19.23l.21.65h.68l-.55.4.21.65-.55-.41-.55.41.21-.65-.55-.4h.68l.21-.65z"/><path class="prefix__cls-4" d="M30.81 19.49l.12.39.07.12h.5l-.33.24-.08.06v.09l.13.39-.33-.24-.08-.06-.08.06-.33.24.13-.39v-.09l-.08-.06-.3-.24h.51v-.09l.12-.39m0-.45l-.26.79h-.83l.68.49-.26.79.67-.49.67.49-.25-.79.67-.49h-.83l-.23-.86z"/><path class="prefix__cls-3" d="M27.84 24.94l.33 1.02h1.08l-.87.64.33 1.02-.87-.63-.87.63.33-1.02-.87-.64h1.08l.33-1.02z"/><path class="prefix__cls-4" d="M27.84 25.18l.25.78v.09H29l-.66.48-.08.06v.1l.25.78-.59-.47-.08-.06-.08.06-.66.48.25-.78v-.1l-.08-.06-.66-.48h.92v-.09l.25-.78m0-.45l-.38 1.18h-1.19l1 .74-.39 1.18 1-.73 1 .73-.39-1.18 1-.74h-1.2l-.39-1.18z"/><path class="prefix__cls-3" d="M27.95 15.59l.28.86h.9l-.72.53.27.86-.73-.53-.72.53.27-.86-.73-.53h.91l.27-.86z"/><path class="prefix__cls-4" d="M28 15.88l.19.57v.1h.71l-.49.36-.08.06v.09l.19.58-.52-.35v-.06l-.08.06-.49.35.19-.58v-.09l-.08-.06-.5-.36h.71v-.1l.18-.57m0-.46l-.32 1h-1l.84.61-.33 1 .88-.63.84.61-.32-1 .84-.61h-1l-.32-1z"/><path class="prefix__cls-3" d="M25.1 19.23l.33 1.02h1.07l-.87.62.33 1.02-.86-.63-.87.63.33-1.02-.86-.62h1.07l.33-1.02z"/><path class="prefix__cls-4" d="M25.1 19.46l.25.78v.09h.92l-.66.48-.08.06v.1l.25.78-.66-.48-.08-.06-.08.06-.67.48.26-.78v-.1l-.08-.06-.66-.48h.91v-.09l.25-.78m0-.45l-.39 1.18h-1.11l1 .74-.38 1.18 1-.73 1 .73-.39-1.18 1-.74h-1.22L25.1 19z"/></g></g></svg>