<svg xmlns="http://www.w3.org/2000/svg" viewBox="0 0 34 34"><defs><style>.cls-1{fill:#f0f0f0;}.cls-2{fill:#0052b4;}.cls-3{fill:#d80027;}</style></defs><g id="_5" data-name="5"><g id="gbpusd"><g id="gb100"><circle class="cls-1" cx="11.89" cy="11.89" r="11.89"/><path class="cls-2" d="M2.46,4.65a11.81,11.81,0,0,0-2,4.14H6.6Z"/><path class="cls-2" d="M23.37,8.79a11.81,11.81,0,0,0-2.05-4.14L17.18,8.79Z"/><path class="cls-2" d="M.41,15a11.81,11.81,0,0,0,2.05,4.14L6.59,15Z"/><path class="cls-2" d="M19.13,2.46A11.81,11.81,0,0,0,15,.41V6.59Z"/><path class="cls-2" d="M4.65,21.32a11.81,11.81,0,0,0,4.14,2.05V17.18Z"/><path class="cls-2" d="M8.79.41A11.81,11.81,0,0,0,4.65,2.46L8.79,6.59Z"/><path class="cls-2" d="M15,23.37a11.81,11.81,0,0,0,4.14-2.05L15,17.18v6.19Z"/><path class="cls-2" d="M17.18,15l4.14,4.14A11.81,11.81,0,0,0,23.37,15Z"/><path class="cls-3" d="M23.68,10.34H13.44V.1a12.06,12.06,0,0,0-3.1,0V10.34H.1a12.06,12.06,0,0,0,0,3.1H10.34V23.68a12.06,12.06,0,0,0,3.1,0V13.44H23.68a12.06,12.06,0,0,0,0-3.1Z"/><path class="cls-3" d="M15,15h0L20.3,20.3c.24-.25.47-.5.7-.77L16.45,15Z"/><path class="cls-3" d="M8.79,15h0L3.48,20.3c.25.24.5.47.77.7l4.54-4.55V15Z"/><path class="cls-3" d="M8.79,8.79h0L3.48,3.48c-.24.25-.47.5-.7.77L7.33,8.79Z"/><path class="cls-3" d="M15,8.79h0L20.3,3.48c-.25-.24-.5-.47-.77-.7L15,7.33Z"/></g><g id="us30"><circle class="cls-1" cx="22.11" cy="22.11" r="11.89"/><path class="cls-3" d="M21.59,22.11H34a11.77,11.77,0,0,0-.41-3.1h-12Z"/><path class="cls-3" d="M21.59,15.91H32.25a11.8,11.8,0,0,0-2.74-3.11H21.59Z"/><path class="cls-3" d="M22.11,34a11.87,11.87,0,0,0,7.4-2.58H14.71A11.87,11.87,0,0,0,22.11,34Z"/><path class="cls-3" d="M12,28.31H32.25a11.59,11.59,0,0,0,1.34-3.1h-23A11.59,11.59,0,0,0,12,28.31Z"/><path class="cls-2" d="M15.73,12.08h1.08l-1,.73L16.19,14l-1-.73-1,.73.34-1a12,12,0,0,0-2.31,2.57h.35L11.9,16l-.28.5.3.95L11.35,17q-.21.45-.39.93l.34,1h1.25l-1,.74.38,1.18-1-.73-.61.44a12,12,0,0,0-.09,1.48H22.11V10.22A11.78,11.78,0,0,0,15.73,12.08Zm.46,8.84-1-.73-1,.73.39-1.18-1-.74H14.8l.38-1.18L15.57,19h1.24l-1,.74Zm-.39-4.65.39,1.19-1-.73-1,.73.39-1.19-1-.73H14.8l.38-1.18.39,1.18h1.24Zm4.65,4.65-1-.73-1,.73.38-1.18-1-.74h1.25l.39-1.18L19.83,19h1.25l-1,.74Zm-.38-4.65.38,1.19-1-.73-1,.73.38-1.19-1-.73h1.25l.39-1.18.38,1.18h1.25Zm0-3.46L20.45,14l-1-.73-1,.73.38-1.18-1-.73h1.25l.39-1.19.38,1.19h1.25Z"/></g></g></g></svg>