<?xml version="1.0" encoding="UTF-8"?>
<svg id="Layer_1" xmlns="http://www.w3.org/2000/svg" version="1.1" viewBox="0 0 34 34">
  <!-- Generator: Adobe Illustrator 30.0.0, SVG Export Plug-In . SVG Version: 2.1.1 Build 123)  -->
  <defs>
    <style>
      .st0 {
        fill: #fff;
      }

      .st1 {
        fill: #f0f0f0;
      }

      .st2 {
        fill: #d80027;
      }

      .st3 {
        fill: #0052b4;
      }
    </style>
  </defs>
  <g id="prefix___5">
    <g id="prefix__nzdjpy">
      <path class="st3" d="M23.78,11.89c0,6.57-5.32,11.89-11.89,11.89S0,18.46,0,11.89L11.89,0c6.57,0,11.89,5.32,11.89,11.89h0Z"/>
      <path class="st1" d="M11.89,6.2V0C5.32,0,0,5.32,0,11.89h6.2v-3.49l3.5,3.49h2.16v-2.19l-3.46-3.5h3.49Z"/>
      <path class="st2" d="M6,1.55c-1.85,1.06-3.39,2.6-4.45,4.45v5.87h3.1v-7.22h7.24V1.55h-5.89Z"/>
      <path class="st2" d="M11.89,10.43l-4.22-4.23h-1.47l5.69,5.69v-1.46ZM20.59,9.01l.21.65h.68l-.55.4.21.65-.55-.41-.55.41.21-.65-.55-.4h.68l.21-.65Z"/>
      <path class="st0" d="M20.59,9.27l.12.39v.09h.5l-.33.24-.08.06v.09l.13.39-.33-.24-.08-.06-.08.06-.33.24.13-.39v-.09l.02-.05-.33-.24h.5v-.09l.12-.39M20.55,8.83l-.26.79h-.79l.68.49-.26.79.67-.49.67.49-.26-.8.67-.49h-.83l-.26-.79h-.03Z"/>
      <path class="st2" d="M17.62,14.72l.33,1.02h1.08l-.87.64.33,1.02-.87-.63-.87.63.33-1.02-.87-.64h1.08s.33-1.02.33-1.02Z"/>
      <path class="st0" d="M17.62,15l.25.78v.09h.91l-.66.48-.08.06v.1l.25.78-.66-.48-.08-.06-.08.06-.66.48.25-.78v-.1l-.08-.06-.66-.48h.92v-.09l.25-.78M17.49,14.55l-.38,1.18h-1.11l1,.74-.39,1.18,1-.73,1,.73-.39-1.18,1-.74h-1.22l-.39-1.18h-.12Z"/>
      <path class="st2" d="M17.73,5.37l.28.86h.9l-.73.53.28.86-.73-.53-.73.53.28-.86-.73-.53h.9s.28-.86.28-.86Z"/>
      <path class="st0" d="M17.73,5.65l.19.58v.1h.71l-.49.36-.08.06v.09l.19.58-.49-.35-.03-.07-.08.06-.49.35.19-.58v-.09l-.08-.06-.5-.36h.71v-.1l.18-.58M17.66,5.19l-.32,1h-1l.84.61-.32,1,.84-.61.84.61-.32-1,.84-.61h-1l-.32-1h-.08Z"/>
      <path class="st2" d="M14.88,9.01l.33,1.02h1.07l-.87.62.33,1.02-.86-.63-.87.63.33-1.02-.86-.62h1.07s.33-1.02.33-1.02Z"/>
      <path class="st0" d="M14.88,9.24l.25.78v.09h.92l-.66.48-.08.06v.1l.25.78-.56-.53h-.16l-.67.49.26-.78v-.1l-.08-.06-.66-.48h.91v-.09l.26-.78M14.86,8.75l-.37,1.25h-1.24l1,.74-.38,1.18,1-.73,1,.73-.39-1.18,1-.74h-1.22l-.38-1.18-.02-.07Z"/>
    </g>
  </g>
  <g id="_5">
    <g id="audcad">
      <circle class="st1" cx="22.11" cy="22.11" r="11.89"/>
      <path class="st2" d="M34,22.11c0-4.56-2.61-8.72-6.72-10.71v21.42c4.11-1.98,6.73-6.14,6.72-10.71Z"/>
      <path class="st2" d="M10.23,22.11c0,4.56,2.6,8.72,6.71,10.71V11.4c-4.1,1.99-6.71,6.15-6.71,10.71Z"/>
      <polygon class="st2" points="24.18 23.66 26.25 22.63 25.21 22.11 25.21 21.08 23.15 22.11 24.18 20.05 23.15 20.05 22.11 18.5 21.08 20.05 20.05 20.05 21.08 22.11 19.01 21.08 19.01 22.11 17.98 22.63 20.05 23.66 19.53 24.7 21.6 24.7 21.6 26.25 22.63 26.25 22.63 24.7 24.7 24.7 24.18 23.66"/>
    </g>
  </g>
</svg>