<svg xmlns="http://www.w3.org/2000/svg" viewBox="0 0 34 34"><defs><style>.prefix__cls-2{fill:#f0f0f0}.prefix__cls-3{fill:#d80027}.prefix__cls-4{fill:#fff}</style></defs><g id="prefix___5" data-name="5"><g id="prefix__nzdjpy"><path d="M23.78 11.89a11.89 11.89 0 01-23.78 0L11.89 0a11.89 11.89 0 0111.89 11.89z" fill="#0052b4"/><path class="prefix__cls-2" d="M11.86 11.89zM11.89 6.2V0A11.89 11.89 0 000 11.89h6.2V8.4l3.5 3.49h2.16V9.7L8.4 6.2z"/><path class="prefix__cls-3" d="M6 1.55A12 12 0 001.55 6v5.87h3.1V4.65h7.24v-3.1z"/><path class="prefix__cls-3" d="M11.89 10.43L7.67 6.2H6.2l5.69 5.69zM20.59 9.01l.21.65h.68l-.55.4.21.65-.55-.41-.55.41.21-.65-.55-.4h.68l.21-.65z"/><path class="prefix__cls-4" d="M20.59 9.27l.12.39v.09h.5l-.33.24-.08.06v.09l.13.39-.33-.24-.08-.06-.08.06-.33.24.13-.39v-.09l.02-.05-.33-.24h.5v-.09l.12-.39m0-.45l-.26.79h-.79l.68.49-.26.79.67-.49.67.49-.26-.8.67-.49h-.83l-.26-.79z"/><path class="prefix__cls-3" d="M17.62 14.72l.33 1.02h1.08l-.87.64.33 1.02-.87-.63-.87.63.33-1.02-.87-.64h1.08l.33-1.02z"/><path class="prefix__cls-4" d="M17.62 15l.25.78v.09h.91l-.66.48-.08.06v.1l.25.78-.66-.48-.08-.06-.08.06-.66.48.25-.78v-.1l-.08-.06-.66-.48h.92v-.09l.25-.78m0-.45l-.38 1.18H16l1 .74-.39 1.18 1-.73 1 .73-.39-1.18 1-.74H18l-.39-1.18z"/><path class="prefix__cls-3" d="M17.73 5.37l.28.86h.9l-.73.53.28.86-.73-.53-.73.53.28-.86-.73-.53h.9l.28-.86z"/><path class="prefix__cls-4" d="M17.73 5.65l.19.58v.1h.71l-.49.36-.08.06v.09l.19.58-.49-.35-.03-.07-.08.06-.49.35.19-.58v-.09l-.08-.06-.5-.36h.71v-.1l.18-.58m0-.45l-.32 1h-1l.84.61-.32 1 .84-.61.84.61-.32-1 .84-.61h-1l-.32-1z"/><path class="prefix__cls-3" d="M14.88 9.01l.33 1.02h1.07l-.87.62.33 1.02-.86-.63-.87.63.33-1.02-.86-.62h1.07l.33-1.02z"/><path class="prefix__cls-4" d="M14.88 9.24l.25.78v.09h.92l-.66.48-.08.06v.1l.25.78L15 11h-.16l-.67.49.26-.78v-.1l-.08-.06-.66-.48h.91v-.09l.26-.78m0-.45L14.49 10h-1.24l1 .74-.38 1.18 1-.73 1 .73-.39-1.18 1-.74h-1.22l-.38-1.18z"/><g id="prefix__jp225"><circle class="prefix__cls-2" cx="22.11" cy="22.11" r="11.89"/><circle class="prefix__cls-3" cx="22.11" cy="22.11" r="5.17"/></g></g></g></svg>