<svg xmlns="http://www.w3.org/2000/svg" viewBox="0 0 34 34"><defs><style>.cls-1{fill:#0052b4;}.cls-2{fill:#f0f0f0;}.cls-3{fill:#d80027;}.cls-4{fill:#fff;}</style></defs><g id="_5" data-name="5"><g id="nzdusd"><path class="cls-1" d="M23.78,11.89A11.89,11.89,0,0,1,0,11.89L11.89,0A11.89,11.89,0,0,1,23.78,11.89Z"/><path class="cls-2" d="M11.86,11.89h0v0Z"/><path class="cls-2" d="M11.89,6.2V0h0A11.89,11.89,0,0,0,0,11.89H6.2V8.4l3.5,3.49h2.16l0,0V9.7L8.4,6.2Z"/><path class="cls-3" d="M6,1.55A12,12,0,0,0,1.55,6v5.87h3.1V4.65h7.24V1.55Z"/><path class="cls-3" d="M11.89,10.43,7.67,6.2H6.2l5.69,5.69h0Z"/><polygon class="cls-3" points="20.59 9.01 20.8 9.66 21.48 9.66 20.93 10.06 21.14 10.71 20.59 10.3 20.04 10.71 20.25 10.06 19.7 9.66 20.38 9.66 20.59 9.01"/><path class="cls-4" d="M20.59,9.27l.12.39,0,.09h.5l-.33.24-.08.06,0,.09.13.39-.33-.24-.08-.06-.08.06-.33.24.13-.39,0-.09L20.26,10l-.33-.24h.5l0-.09.12-.39m0-.45-.26.79H19.5l.68.49-.26.79.67-.49.67.49L21,10.1l.67-.49h-.83l-.26-.79Z"/><polygon class="cls-3" points="17.62 14.72 17.95 15.74 19.03 15.74 18.16 16.38 18.49 17.4 17.62 16.77 16.75 17.4 17.08 16.38 16.21 15.74 17.29 15.74 17.62 14.72"/><path class="cls-4" d="M17.62,15l.25.78,0,.09h.91l-.66.48-.08.06,0,.1.25.78-.66-.48-.08-.06-.08.06-.66.48.25-.78,0-.1-.08-.06-.66-.48h.92l0-.09.25-.78m0-.45-.38,1.18H16l1,.74-.39,1.18,1-.73,1,.73-.39-1.18,1-.74H18l-.39-1.18Z"/><polygon class="cls-3" points="17.73 5.37 18.01 6.23 18.91 6.23 18.18 6.76 18.46 7.62 17.73 7.09 17 7.62 17.28 6.76 16.55 6.23 17.45 6.23 17.73 5.37"/><path class="cls-4" d="M17.73,5.65l.19.58,0,.1h.71l-.49.36-.08.06,0,.09.19.58-.49-.35L17.73,7l-.08.06-.49.35.19-.58,0-.09-.08-.06-.5-.36h.71l0-.1.18-.58m0-.45-.32,1h-1l.84.61-.32,1,.84-.61.84.61-.32-1,.84-.61h-1l-.32-1Z"/><polygon class="cls-3" points="14.88 9.01 15.21 10.03 16.28 10.03 15.41 10.65 15.74 11.67 14.88 11.04 14.01 11.67 14.34 10.65 13.48 10.03 14.55 10.03 14.88 9.01"/><path class="cls-4" d="M14.88,9.24l.25.78,0,.09h.92l-.66.48-.08.06,0,.1.25.78L15,11l-.08,0-.08,0-.67.49.26-.78,0-.1-.08-.06-.66-.48h.91l0-.09.26-.78m0-.45L14.49,10H13.25l1,.74-.38,1.18,1-.73,1,.73-.39-1.18,1-.74H15.26l-.38-1.18Z"/><g id="us30"><circle class="cls-2" cx="22.11" cy="22.11" r="11.89"/><path class="cls-3" d="M21.59,22.11H34a11.77,11.77,0,0,0-.41-3.1h-12Z"/><path class="cls-3" d="M21.59,15.91H32.25a11.8,11.8,0,0,0-2.74-3.11H21.59Z"/><path class="cls-3" d="M22.11,34a11.87,11.87,0,0,0,7.4-2.58H14.71A11.87,11.87,0,0,0,22.11,34Z"/><path class="cls-3" d="M12,28.31H32.25a11.59,11.59,0,0,0,1.34-3.1h-23A11.59,11.59,0,0,0,12,28.31Z"/><path class="cls-1" d="M15.73,12.08h1.08l-1,.73L16.19,14l-1-.73-1,.73.34-1a12,12,0,0,0-2.31,2.57h.35L11.9,16l-.28.5.3.95L11.35,17q-.21.45-.39.93l.34,1h1.25l-1,.74.38,1.18-1-.73-.61.44a12,12,0,0,0-.09,1.48H22.11V10.22A11.78,11.78,0,0,0,15.73,12.08Zm.46,8.84-1-.73-1,.73.39-1.18-1-.74H14.8l.38-1.18L15.57,19h1.24l-1,.74Zm-.39-4.65.39,1.19-1-.73-1,.73.39-1.19-1-.73H14.8l.38-1.18.39,1.18h1.24Zm4.65,4.65-1-.73-1,.73.38-1.18-1-.74h1.25l.39-1.18L19.83,19h1.25l-1,.74Zm-.38-4.65.38,1.19-1-.73-1,.73.38-1.19-1-.73h1.25l.39-1.18.38,1.18h1.25Zm0-3.46L20.45,14l-1-.73-1,.73.38-1.18-1-.73h1.25l.39-1.19.38,1.19h1.25Z"/></g></g></g></svg>