<svg xmlns="http://www.w3.org/2000/svg" viewBox="0 0 34 34"><defs><style>.cls-1{fill:#f0f0f0;}.cls-2{fill:#d80027;}.cls-3{fill:#0052b4;}</style></defs><g id="_5" data-name="5"><g id="usdchf"><g id="us30"><circle class="cls-1" cx="11.89" cy="11.89" r="11.89"/><path class="cls-2" d="M11.37,11.89H23.78a11.77,11.77,0,0,0-.41-3.1h-12Z"/><path class="cls-2" d="M11.37,5.69H22a11.8,11.8,0,0,0-2.74-3.11H11.37Z"/><path class="cls-2" d="M11.89,23.78a11.87,11.87,0,0,0,7.4-2.58H4.49A11.87,11.87,0,0,0,11.89,23.78Z"/><path class="cls-2" d="M1.75,18.09H22A11.59,11.59,0,0,0,23.37,15H.41A11.59,11.59,0,0,0,1.75,18.09Z"/><path class="cls-3" d="M5.51,1.86H6.59l-1,.73L6,3.77,5,3,4,3.77l.34-1A12,12,0,0,0,2,5.32h.35l-.65.47c-.1.16-.19.33-.28.5l.3,1-.57-.42q-.21.45-.39.93l.34,1H2.33l-1,.74L1.7,10.7.7,10l-.61.44A12,12,0,0,0,0,11.89H11.89V0A11.78,11.78,0,0,0,5.51,1.86ZM6,10.7,5,10,4,10.7l.39-1.18-1-.74H4.58L5,7.6l.39,1.18H6.59l-1,.74ZM5.58,6.05,6,7.24,5,6.51,4,7.24l.39-1.19-1-.73H4.58L5,4.14l.39,1.18H6.59Zm4.65,4.65-1-.73-1,.73L8.6,9.52l-1-.74H8.84L9.23,7.6l.38,1.18h1.25l-1,.74ZM9.85,6.05l.38,1.19-1-.73-1,.73L8.6,6.05l-1-.73H8.84l.39-1.18.38,1.18h1.25Zm0-3.46.38,1.18L9.23,3l-1,.73L8.6,2.59l-1-.73H8.84L9.23.67l.38,1.19h1.25Z"/></g><g id="ch20"><circle class="cls-2" cx="22.11" cy="22.11" r="11.89"/><polygon class="cls-1" points="28.31 20.04 24.18 20.04 24.18 15.91 20.04 15.91 20.04 20.04 15.91 20.04 15.91 24.18 20.04 24.18 20.04 28.31 24.18 28.31 24.18 24.18 28.31 24.18 28.31 20.04"/></g></g></g></svg>