<?xml version="1.0" encoding="utf-8"?>
<!-- Generator: Adobe Illustrator 28.0.0, SVG Export Plug-In . SVG Version: 6.00 Build 0)  -->
<svg version="1.1" id="Warstwa_1" xmlns="http://www.w3.org/2000/svg" xmlns:xlink="http://www.w3.org/1999/xlink" x="0px" y="0px"
	 viewBox="0 0 34 34" style="enable-background:new 0 0 34 34;" xml:space="preserve">
<style type="text/css">
	.st0{fill:#F0F0F0;}
	.st1{fill:#D80027;}
	.st2{fill:#0052B4;}
</style>
<g id="_5">
	<g id="eurjpy">
		<g id="us30">
			<circle class="st0" cx="11.9" cy="11.9" r="11.9"/>
			<path class="st1" d="M11.4,11.9h12.4c0-1-0.1-2.1-0.4-3.1h-12L11.4,11.9z"/>
			<path class="st1" d="M11.4,5.7H22c-0.7-1.2-1.7-2.2-2.7-3.1h-7.9V5.7z"/>
			<path class="st1" d="M11.9,23.8c2.7,0,5.3-0.9,7.4-2.6H4.5C6.6,22.9,9.2,23.8,11.9,23.8z"/>
			<path class="st1" d="M1.8,18.1H22c0.6-1,1.1-2,1.4-3.1h-23C0.7,16.1,1.2,17.1,1.8,18.1z"/>
			<path class="st2" d="M5.5,1.9h1.1l-1,0.7L6,3.8L5,3L4,3.8l0.3-1C3.4,3.5,2.7,4.4,2,5.3h0.3L1.7,5.8C1.6,5.9,1.5,6.1,1.4,6.3
				l0.3,1L1.2,6.9C1,7.2,0.9,7.5,0.8,7.8l0.3,1h1.2l-1,0.7l0.4,1.2l-1-0.7l-0.6,0.4C0,10.9,0,11.4,0,11.9h11.9V0
				C9.6,0,7.4,0.6,5.5,1.9z M6,10.7L5,10l-1,0.7l0.4-1.2l-1-0.7h1.2L5,7.6l0.4,1.2h1.2l-1,0.7L6,10.7z M5.6,6L6,7.2L5,6.5L4,7.2
				L4.4,6l-1-0.7h1.2L5,4.1l0.4,1.2h1.2L5.6,6z M10.2,10.7l-1-0.7l-1,0.7l0.4-1.2l-1-0.7h1.2l0.4-1.2l0.4,1.2h1.2l-1,0.7L10.2,10.7z
				 M9.9,6l0.4,1.2l-1-0.7l-1,0.7L8.6,6l-1-0.7h1.2l0.4-1.2l0.4,1.2h1.2L9.9,6z M9.9,2.6l0.4,1.2L9.2,3l-1,0.7l0.4-1.1l-1-0.7h1.2
				l0.4-1.2l0.4,1.2h1.2L9.9,2.6z"/>
		</g>
		<g id="jp225">
			<circle class="st0" cx="22.1" cy="22.1" r="11.9"/>
			<circle class="st1" cx="22.1" cy="22.1" r="5.2"/>
		</g>
	</g>
</g>
</svg>
