<svg xmlns="http://www.w3.org/2000/svg" viewBox="0 0 34 34"><defs><style>.cls-1{fill:#e5e5e5;}.cls-2{fill:#273052;}.cls-3{fill:#fefefe;}.cls-4{fill:#fff;}</style></defs><g id="_3" data-name="3"><g id="oilwti"><path id="BG" class="cls-1" d="M17,.25A16.75,16.75,0,1,1,.25,17,16.76,16.76,0,0,1,17,.25M17,0A17,17,0,1,0,34,17,17,17,0,0,0,17,0Z"/><circle class="cls-2" cx="17" cy="17" r="16.75"/><path class="cls-3" d="M22,17.44c-.68-2.2-2.88-4.07-3.6-5.18a7,7,0,0,1-.9-2.53s.07-.75-.23-.86-1,.76-1.46,1.34-1.51,2.08-1.51,2.08-2.41,3-2.74,5.11a11.16,11.16,0,0,0,.18,4.68c.29,1,2.6,3.6,6.3,3.06a4.62,4.62,0,0,0,4.17-3.6A8.42,8.42,0,0,0,22,17.44Zm-6,6c-1.75-.07-3.06-2.79-3.24-3.7a12.91,12.91,0,0,1,.39-3.4,14.62,14.62,0,0,0,2.1,3.31,6.07,6.07,0,0,0,3,1.8S17.74,23.54,16,23.48Z"/><rect id="Txt_BG" class="cls-4" x="2.37" y="11.94" width="29.25" height="10.11" rx="1.27"/><path class="cls-2" d="M17.66,14.7l-1.58,4.73h-1.2l-1.07-3.21-1.1,3.21H11.52L9.93,14.7h1.16L12.18,18l1.14-3.32h1l1.1,3.35,1.13-3.35Z"/><path class="cls-2" d="M19.31,15.59H17.76V14.7H22v.89H20.43v3.84H19.31Z"/><path class="cls-2" d="M22.47,14.7h1.12v4.73H22.47Z"/></g></g></svg>