<svg xmlns="http://www.w3.org/2000/svg" viewBox="0 0 34 34"><defs><style>.cls-1{fill:#e5e5e5;}.cls-2{fill:#273052;}.cls-3{fill:#ffc100;}.cls-4{fill:#ffd000;}.cls-5{fill:#ffe767;}.cls-6{fill:#ffee93;}.cls-7{fill:#ffe031;}</style></defs><g id="_3" data-name="3"><g id="gold"><path id="BG" class="cls-1" d="M17,.25A16.75,16.75,0,1,1,.25,17,16.76,16.76,0,0,1,17,.25M17,0A17,17,0,1,0,34,17,17,17,0,0,0,17,0Z"/><circle class="cls-2" cx="17" cy="17" r="16.75"/><rect class="cls-3" x="11.71" y="8.24" width="10.57" height="17.52" transform="translate(17 -7.04) rotate(45)"/><rect class="cls-4" x="12.49" y="6.37" width="5.29" height="17.52" transform="translate(15.13 -6.27) rotate(45)"/><rect class="cls-5" x="13.34" y="10.19" width="7.27" height="13.63" transform="translate(16.99 -7.02) rotate(45)"/><rect class="cls-6" x="16.44" y="11.47" width="3.64" height="13.63" transform="translate(18.28 -7.56) rotate(45)"/><rect class="cls-5" x="13.7" y="10.56" width="6.59" height="12.88" transform="translate(17 -7.04) rotate(45)"/><rect class="cls-6" x="14.19" y="9.39" width="3.28" height="12.88" transform="translate(15.83 -6.56) rotate(45)"/><polygon class="cls-7" points="19.46 7.07 19.22 9.61 21.81 12.19 23.2 10.8 19.46 7.07"/><polygon class="cls-4" points="26.93 14.54 24.37 14.75 21.81 12.19 23.2 10.8 26.93 14.54"/><polygon class="cls-4" points="14.54 26.93 14.73 24.39 12.17 21.83 10.8 23.2 14.54 26.93"/><polygon class="cls-7" points="7.07 19.46 9.59 19.25 12.17 21.83 10.8 23.2 7.07 19.46"/></g></g></svg>