<svg xmlns="http://www.w3.org/2000/svg" viewBox="0 0 34 34"><defs><style>.cls-1{fill:#e5e5e5;}.cls-2{fill:#273052;}.cls-3{fill:#fefefe;}.cls-4{fill:#fff;}</style></defs><g id="_3" data-name="3"><g id="oilbrnt"><path id="BG" class="cls-1" d="M17,.25A16.75,16.75,0,1,1,.25,17,16.76,16.76,0,0,1,17,.25M17,0A17,17,0,1,0,34,17,17,17,0,0,0,17,0Z"/><circle class="cls-2" cx="17" cy="17" r="16.75"/><path class="cls-3" d="M22,17.44c-.68-2.2-2.88-4.07-3.6-5.18a7,7,0,0,1-.9-2.53s.07-.75-.23-.86-1,.76-1.46,1.34-1.51,2.08-1.51,2.08-2.41,3-2.74,5.11a11.16,11.16,0,0,0,.18,4.68c.29,1,2.6,3.6,6.3,3.06a4.62,4.62,0,0,0,4.17-3.6A8.42,8.42,0,0,0,22,17.44Zm-6,6c-1.75-.07-3.06-2.79-3.24-3.7a12.91,12.91,0,0,1,.39-3.4,14.62,14.62,0,0,0,2.1,3.31,6.07,6.07,0,0,0,3,1.8S17.74,23.54,16,23.48Z"/><rect id="Txt_BG" class="cls-4" x="2.37" y="11.94" width="29.25" height="10.11" rx="1.27"/><path class="cls-2" d="M9.76,18.14c0,.81-.66,1.29-1.94,1.29H5.32V14.7H7.69c1.21,0,1.83.49,1.83,1.22a1.15,1.15,0,0,1-.64,1A1.17,1.17,0,0,1,9.76,18.14ZM6.44,15.52v1.11H7.55c.54,0,.84-.18.84-.56s-.3-.55-.84-.55ZM8.63,18c0-.4-.31-.59-.89-.59H6.44V18.6h1.3C8.32,18.6,8.63,18.43,8.63,18Z"/><path class="cls-2" d="M13.59,19.43l-.94-1.32h-1v1.32H10.5V14.7h2.1c1.29,0,2.1.65,2.1,1.71a1.56,1.56,0,0,1-1,1.5l1.08,1.52Zm-1.05-3.84h-.92v1.65h.92c.68,0,1-.31,1-.83S13.22,15.59,12.54,15.59Z"/><path class="cls-2" d="M19.23,18.55v.88H15.48V14.7h3.66v.87H16.59v1h2.25v.85H16.59v1.1Z"/><path class="cls-2" d="M24.45,14.7v4.73h-.92l-2.41-2.88v2.88H20V14.7h.93l2.41,2.87V14.7Z"/><path class="cls-2" d="M26.5,15.59H25V14.7h4.21v.89H27.61v3.84H26.5Z"/></g></g></svg>